# xmcd
#
# Track frame offsets:
# 150
# 21333
# 51390
# 72711
# 102879
# 145947
# 165552
# 191774
# 228641
# 290873
#
# Disc length: 4279 seconds
#
#
# Revision: 0
# Processed by: cddbd v1.5.2PL0 Copyright (c) Steve Scherf et al.
# Submitted via: FreeRIP 2.945 
#
DISCID=a010b50a
DTITLE=SUPREME COURT - LIVE IN SESSION
DYEAR=2002
DGENRE=BLUES
TTITLE0=MAKE LOVE TO ME
TTITLE1=MYSTERY TRAIN
TTITLE2=DR. FEELGOOD
TTITLE3=I CAN'T GET NEXT TO YOU
TTITLE4=I'D RATHER GO BLIND
TTITLE5=HONEY HUSH
TTITLE6=YOU CAN HAVE MY HUSBAND
TTITLE7=3OOLBS. OF HEAVENLY JOY
TTITLE8=LIVE THE LIFE I LOVE
TTITLE9=CALDONIA
EXTD=LOVE YOU BERNIE!
EXTT0=
EXTT1=
EXTT2=
EXTT3=
EXTT4=
EXTT5=
EXTT6=
EXTT7=
EXTT8=
EXTT9=
PLAYORDER=
